<?xml version="1.0" encoding="UTF-8" standalone="no"?>
<!-- Created with Inkscape (http://www.inkscape.org/) -->

<svg
   width="65.726547mm"
   height="57.153511mm"
   viewBox="0 0 65.726547 57.153511"
   version="1.1"
   id="svg5"
   xml:space="preserve"
   inkscape:version="1.2.1 (9c6d41e410, 2022-07-14)"
   sodipodi:docname="vue-popper-logo.svg"
   inkscape:export-filename="vue-popper-logo-final.svg"
   inkscape:export-xdpi="96"
   inkscape:export-ydpi="96"
   xmlns:inkscape="http://www.inkscape.org/namespaces/inkscape"
   xmlns:sodipodi="http://sodipodi.sourceforge.net/DTD/sodipodi-0.dtd"
   xmlns="http://www.w3.org/2000/svg"
   xmlns:svg="http://www.w3.org/2000/svg"><sodipodi:namedview
     id="namedview7"
     pagecolor="#ffffff"
     bordercolor="#666666"
     borderopacity="1.0"
     inkscape:showpageshadow="2"
     inkscape:pageopacity="0.0"
     inkscape:pagecheckerboard="0"
     inkscape:deskcolor="#d1d1d1"
     inkscape:document-units="mm"
     showgrid="false"
     inkscape:zoom="1.0444209"
     inkscape:cx="412.66887"
     inkscape:cy="412.66887"
     inkscape:window-width="2560"
     inkscape:window-height="1009"
     inkscape:window-x="-8"
     inkscape:window-y="-8"
     inkscape:window-maximized="1"
     inkscape:current-layer="layer1" /><defs
     id="defs2" /><g
     inkscape:label="Layer 1"
     inkscape:groupmode="layer"
     id="layer1"
     transform="translate(-31.942384,-37.565871)"><g
       id="g5270"><path
         fill="#35495e"
         d="m 31.942384,37.565872 h 20.289505 l 12.573753,22.00408 12.5738,-22.00408 h 20.28949 l -32.86329,57.15351"
         id="path2297-4"
         style="fill:#c83b50;stroke:none;stroke-width:1.29608;stroke-linecap:butt;stroke-miterlimit:0;stroke-dasharray:none;stroke-opacity:1;paint-order:normal" /><path
         fill="#35495e"
         d="m 34.375452,38.722932 h 18.785423 l 11.641687,20.37291 11.64167,-20.37291 h 18.78541 l -30.42708,52.91666"
         id="path2297"
         style="opacity:1;fill:#ffe69d;stroke:none;stroke-width:1.2;stroke-linecap:butt;stroke-miterlimit:0;stroke-dasharray:none;stroke-opacity:1;paint-order:normal" /><g
         id="g2711"
         transform="matrix(0.96540011,0,0,0.96540011,-21.843483,-116.87112)"><path
           fill-rule="evenodd"
           clip-rule="evenodd"
           d="m 96.411498,182.7991 c -0.40076,0.10633 -0.68227,0.27487 -0.99508,0.58664 -0.4594,0.45393 -0.657,0.93732 -0.657,1.59244 -0.003,0.78046 0.36539,1.45453 1.02542,1.88213 0.32748,0.21271 0.61201,0.3012 1.04662,0.32227 0.47405,0.0263 0.74393,-0.0253 1.13458,-0.2117 0.35781,-0.17273 0.7616,-0.54979 0.94455,-0.87521 0.49629,-0.88683 0.35022,-2.00008 -0.3467,-2.70255 -0.423,-0.42133 -0.89704,-0.62667 -1.50298,-0.65199 -0.30222,-0.0116 -0.43766,0 -0.64941,0.058 z"
           fill="#c83b50"
           id="path233-5"
           style="stroke-width:0.505378" /><path
           fill-rule="evenodd"
           clip-rule="evenodd"
           d="m 80.180346,182.88769 c -0.605594,0.14954 -1.189153,0.62561 -1.458873,1.1933 -0.175265,0.36968 -0.226712,0.59715 -0.226712,1.00054 0,0.59615 0.21514,1.11957 0.634957,1.54509 0.30646,0.31071 0.630811,0.50133 1.024349,0.60453 0.777724,0.20114 1.572227,-0.0189 2.137948,-0.58244 0.561473,-0.56451 0.776663,-1.36599 0.580374,-2.14224 -0.102844,-0.40653 -0.27078,-0.69303 -0.583559,-1.01425 -0.219333,-0.22433 -0.335823,-0.31176 -0.583508,-0.42866 -0.172132,-0.0811 -0.397783,-0.16536 -0.503811,-0.18744 -0.255013,-0.0506 -0.776663,-0.0474 -1.021165,0.0116 z"
           fill="#c83b50"
           id="path235-2"
           style="stroke-width:0.505378" /><path
           fill-rule="evenodd"
           clip-rule="evenodd"
           d="m 83.164194,190.00496 c 0,0.11376 0.175265,0.79835 0.294888,1.16171 0.726278,2.14544 2.378256,3.76107 4.366106,4.26241 0.84696,0.21271 1.79151,0.21271 2.65217,0 1.87141,-0.46869 3.47902,-1.95899 4.23809,-3.93275 0.19407,-0.49815 0.40936,-1.27122 0.41239,-1.47661 0,-0.0327 -1.2215,-0.0431 -5.98215,-0.0431 -3.28945,0 -5.981494,0.0147 -5.981494,0.0284 z"
           fill="#c83b50"
           id="path237-6"
           style="stroke-width:0.505378" /></g></g></g></svg>
